<svg xmlns="http://www.w3.org/2000/svg" width="928" height="484" viewBox="0 0 928 484" font-family="-apple-system,BlinkMacSystemFont,Segoe UI,Helvetica,Arial,sans-serif">
<text x="22" y="24" font-size="14" font-weight="600" fill="#8b949e">minbpe: time per phase, seconds (lower is better)</text>
<text x="22" y="42" font-size="11" fill="#8b949e">Each panel has its own scale.</text>
<text x="72" y="74" font-size="12.5" font-weight="600" fill="#8b949e">Basic — training</text>
<line x1="72" y1="224.0" x2="298" y2="224.0" stroke="#8b949e" stroke-width="1" stroke-opacity="0.22"/>
<text x="64" y="228.0" font-size="10" fill="#8b949e" text-anchor="end">0</text>
<line x1="72" y1="190.0" x2="298" y2="190.0" stroke="#8b949e" stroke-width="1" stroke-opacity="0.22"/>
<text x="64" y="194.0" font-size="10" fill="#8b949e" text-anchor="end">1.25s</text>
<line x1="72" y1="156.0" x2="298" y2="156.0" stroke="#8b949e" stroke-width="1" stroke-opacity="0.22"/>
<text x="64" y="160.0" font-size="10" fill="#8b949e" text-anchor="end">2.5s</text>
<line x1="72" y1="122.0" x2="298" y2="122.0" stroke="#8b949e" stroke-width="1" stroke-opacity="0.22"/>
<text x="64" y="126.0" font-size="10" fill="#8b949e" text-anchor="end">3.75s</text>
<line x1="72" y1="88.0" x2="298" y2="88.0" stroke="#8b949e" stroke-width="1" stroke-opacity="0.22"/>
<text x="64" y="92.0" font-size="10" fill="#8b949e" text-anchor="end">5s</text>
<rect x="90.8" y="109.7" width="37.7" height="114.3" fill="#3776AB"/>
<text x="109.7" y="103.7" font-size="10" fill="#8b949e" text-anchor="middle">4.20s</text>
<text x="109.7" y="240.0" font-size="11" fill="#8b949e" text-anchor="middle">Python</text>
<rect x="166.2" y="215.6" width="37.7" height="8.4" fill="#A62B1F"/>
<text x="185.0" y="209.6" font-size="10" fill="#8b949e" text-anchor="middle">311ms</text>
<text x="185.0" y="240.0" font-size="11" fill="#8b949e" text-anchor="middle">Rust</text>
<rect x="241.5" y="212.5" width="37.7" height="11.5" fill="#FF9E0B"/>
<text x="260.3" y="206.5" font-size="10" fill="#8b949e" text-anchor="middle">423ms</text>
<text x="260.3" y="240.0" font-size="11" fill="#8b949e" text-anchor="middle">Mojo</text>
<line x1="72" y1="224" x2="298" y2="224" stroke="#8b949e" stroke-width="1.4"/>
<text x="372" y="74" font-size="12.5" font-weight="600" fill="#8b949e">Basic — encoding</text>
<line x1="372" y1="224.0" x2="598" y2="224.0" stroke="#8b949e" stroke-width="1" stroke-opacity="0.22"/>
<text x="364" y="228.0" font-size="10" fill="#8b949e" text-anchor="end">0</text>
<line x1="372" y1="190.0" x2="598" y2="190.0" stroke="#8b949e" stroke-width="1" stroke-opacity="0.22"/>
<text x="364" y="194.0" font-size="10" fill="#8b949e" text-anchor="end">2.5s</text>
<line x1="372" y1="156.0" x2="598" y2="156.0" stroke="#8b949e" stroke-width="1" stroke-opacity="0.22"/>
<text x="364" y="160.0" font-size="10" fill="#8b949e" text-anchor="end">5s</text>
<line x1="372" y1="122.0" x2="598" y2="122.0" stroke="#8b949e" stroke-width="1" stroke-opacity="0.22"/>
<text x="364" y="126.0" font-size="10" fill="#8b949e" text-anchor="end">7.5s</text>
<line x1="372" y1="88.0" x2="598" y2="88.0" stroke="#8b949e" stroke-width="1" stroke-opacity="0.22"/>
<text x="364" y="92.0" font-size="10" fill="#8b949e" text-anchor="end">10s</text>
<rect x="390.8" y="159.0" width="37.7" height="65.0" fill="#3776AB"/>
<text x="409.7" y="153.0" font-size="10" fill="#8b949e" text-anchor="middle">4.78s</text>
<text x="409.7" y="240.0" font-size="11" fill="#8b949e" text-anchor="middle">Python</text>
<rect x="466.2" y="219.6" width="37.7" height="4.4" fill="#A62B1F"/>
<text x="485.0" y="213.6" font-size="10" fill="#8b949e" text-anchor="middle">325ms</text>
<text x="485.0" y="240.0" font-size="11" fill="#8b949e" text-anchor="middle">Rust</text>
<rect x="541.5" y="219.2" width="37.7" height="4.8" fill="#FF9E0B"/>
<text x="560.3" y="213.2" font-size="10" fill="#8b949e" text-anchor="middle">352ms</text>
<text x="560.3" y="240.0" font-size="11" fill="#8b949e" text-anchor="middle">Mojo</text>
<line x1="372" y1="224" x2="598" y2="224" stroke="#8b949e" stroke-width="1.4"/>
<text x="672" y="74" font-size="12.5" font-weight="600" fill="#8b949e">Basic — decoding</text>
<line x1="672" y1="224.0" x2="898" y2="224.0" stroke="#8b949e" stroke-width="1" stroke-opacity="0.22"/>
<text x="664" y="228.0" font-size="10" fill="#8b949e" text-anchor="end">0</text>
<line x1="672" y1="190.0" x2="898" y2="190.0" stroke="#8b949e" stroke-width="1" stroke-opacity="0.22"/>
<text x="664" y="194.0" font-size="10" fill="#8b949e" text-anchor="end">1ms</text>
<line x1="672" y1="156.0" x2="898" y2="156.0" stroke="#8b949e" stroke-width="1" stroke-opacity="0.22"/>
<text x="664" y="160.0" font-size="10" fill="#8b949e" text-anchor="end">2ms</text>
<line x1="672" y1="122.0" x2="898" y2="122.0" stroke="#8b949e" stroke-width="1" stroke-opacity="0.22"/>
<text x="664" y="126.0" font-size="10" fill="#8b949e" text-anchor="end">4ms</text>
<line x1="672" y1="88.0" x2="898" y2="88.0" stroke="#8b949e" stroke-width="1" stroke-opacity="0.22"/>
<text x="664" y="92.0" font-size="10" fill="#8b949e" text-anchor="end">5ms</text>
<rect x="690.8" y="114.3" width="37.7" height="109.7" fill="#3776AB"/>
<text x="709.7" y="108.3" font-size="10" fill="#8b949e" text-anchor="middle">4.0ms</text>
<text x="709.7" y="240.0" font-size="11" fill="#8b949e" text-anchor="middle">Python</text>
<rect x="766.2" y="138.6" width="37.7" height="85.4" fill="#A62B1F"/>
<text x="785.0" y="132.6" font-size="10" fill="#8b949e" text-anchor="middle">3.1ms</text>
<text x="785.0" y="240.0" font-size="11" fill="#8b949e" text-anchor="middle">Rust</text>
<rect x="841.5" y="194.0" width="37.7" height="30.0" fill="#FF9E0B"/>
<text x="860.3" y="188.0" font-size="10" fill="#8b949e" text-anchor="middle">1.1ms</text>
<text x="860.3" y="240.0" font-size="11" fill="#8b949e" text-anchor="middle">Mojo</text>
<line x1="672" y1="224" x2="898" y2="224" stroke="#8b949e" stroke-width="1.4"/>
<text x="72" y="284" font-size="12.5" font-weight="600" fill="#8b949e">Regex — training</text>
<line x1="72" y1="434.0" x2="298" y2="434.0" stroke="#8b949e" stroke-width="1" stroke-opacity="0.22"/>
<text x="64" y="438.0" font-size="10" fill="#8b949e" text-anchor="end">0</text>
<line x1="72" y1="400.0" x2="298" y2="400.0" stroke="#8b949e" stroke-width="1" stroke-opacity="0.22"/>
<text x="64" y="404.0" font-size="10" fill="#8b949e" text-anchor="end">2.5s</text>
<line x1="72" y1="366.0" x2="298" y2="366.0" stroke="#8b949e" stroke-width="1" stroke-opacity="0.22"/>
<text x="64" y="370.0" font-size="10" fill="#8b949e" text-anchor="end">5s</text>
<line x1="72" y1="332.0" x2="298" y2="332.0" stroke="#8b949e" stroke-width="1" stroke-opacity="0.22"/>
<text x="64" y="336.0" font-size="10" fill="#8b949e" text-anchor="end">7.5s</text>
<line x1="72" y1="298.0" x2="298" y2="298.0" stroke="#8b949e" stroke-width="1" stroke-opacity="0.22"/>
<text x="64" y="302.0" font-size="10" fill="#8b949e" text-anchor="end">10s</text>
<rect x="90.8" y="339.7" width="37.7" height="94.3" fill="#3776AB"/>
<text x="109.7" y="333.7" font-size="10" fill="#8b949e" text-anchor="middle">6.94s</text>
<text x="109.7" y="450.0" font-size="11" fill="#8b949e" text-anchor="middle">Python</text>
<rect x="166.2" y="427.3" width="37.7" height="6.7" fill="#A62B1F"/>
<text x="185.0" y="421.3" font-size="10" fill="#8b949e" text-anchor="middle">490ms</text>
<text x="185.0" y="450.0" font-size="11" fill="#8b949e" text-anchor="middle">Rust</text>
<rect x="241.5" y="428.1" width="37.7" height="5.9" fill="#FF9E0B"/>
<text x="260.3" y="422.1" font-size="10" fill="#8b949e" text-anchor="middle">431ms</text>
<text x="260.3" y="450.0" font-size="11" fill="#8b949e" text-anchor="middle">Mojo</text>
<line x1="72" y1="434" x2="298" y2="434" stroke="#8b949e" stroke-width="1.4"/>
<text x="372" y="284" font-size="12.5" font-weight="600" fill="#8b949e">Regex — encoding</text>
<line x1="372" y1="434.0" x2="598" y2="434.0" stroke="#8b949e" stroke-width="1" stroke-opacity="0.22"/>
<text x="364" y="438.0" font-size="10" fill="#8b949e" text-anchor="end">0</text>
<line x1="372" y1="400.0" x2="598" y2="400.0" stroke="#8b949e" stroke-width="1" stroke-opacity="0.22"/>
<text x="364" y="404.0" font-size="10" fill="#8b949e" text-anchor="end">50ms</text>
<line x1="372" y1="366.0" x2="598" y2="366.0" stroke="#8b949e" stroke-width="1" stroke-opacity="0.22"/>
<text x="364" y="370.0" font-size="10" fill="#8b949e" text-anchor="end">100ms</text>
<line x1="372" y1="332.0" x2="598" y2="332.0" stroke="#8b949e" stroke-width="1" stroke-opacity="0.22"/>
<text x="364" y="336.0" font-size="10" fill="#8b949e" text-anchor="end">150ms</text>
<line x1="372" y1="298.0" x2="598" y2="298.0" stroke="#8b949e" stroke-width="1" stroke-opacity="0.22"/>
<text x="364" y="302.0" font-size="10" fill="#8b949e" text-anchor="end">200ms</text>
<rect x="390.8" y="313.7" width="37.7" height="120.3" fill="#3776AB"/>
<text x="409.7" y="307.7" font-size="10" fill="#8b949e" text-anchor="middle">177ms</text>
<text x="409.7" y="450.0" font-size="11" fill="#8b949e" text-anchor="middle">Python</text>
<rect x="466.2" y="407.5" width="37.7" height="26.5" fill="#A62B1F"/>
<text x="485.0" y="401.5" font-size="10" fill="#8b949e" text-anchor="middle">39ms</text>
<text x="485.0" y="450.0" font-size="11" fill="#8b949e" text-anchor="middle">Rust</text>
<rect x="541.5" y="389.4" width="37.7" height="44.6" fill="#FF9E0B"/>
<text x="560.3" y="383.4" font-size="10" fill="#8b949e" text-anchor="middle">66ms</text>
<text x="560.3" y="450.0" font-size="11" fill="#8b949e" text-anchor="middle">Mojo</text>
<line x1="372" y1="434" x2="598" y2="434" stroke="#8b949e" stroke-width="1.4"/>
<text x="672" y="284" font-size="12.5" font-weight="600" fill="#8b949e">Regex — decoding</text>
<line x1="672" y1="434.0" x2="898" y2="434.0" stroke="#8b949e" stroke-width="1" stroke-opacity="0.22"/>
<text x="664" y="438.0" font-size="10" fill="#8b949e" text-anchor="end">0</text>
<line x1="672" y1="400.0" x2="898" y2="400.0" stroke="#8b949e" stroke-width="1" stroke-opacity="0.22"/>
<text x="664" y="404.0" font-size="10" fill="#8b949e" text-anchor="end">2ms</text>
<line x1="672" y1="366.0" x2="898" y2="366.0" stroke="#8b949e" stroke-width="1" stroke-opacity="0.22"/>
<text x="664" y="370.0" font-size="10" fill="#8b949e" text-anchor="end">5ms</text>
<line x1="672" y1="332.0" x2="898" y2="332.0" stroke="#8b949e" stroke-width="1" stroke-opacity="0.22"/>
<text x="664" y="336.0" font-size="10" fill="#8b949e" text-anchor="end">8ms</text>
<line x1="672" y1="298.0" x2="898" y2="298.0" stroke="#8b949e" stroke-width="1" stroke-opacity="0.22"/>
<text x="664" y="302.0" font-size="10" fill="#8b949e" text-anchor="end">10ms</text>
<rect x="690.8" y="361.6" width="37.7" height="72.4" fill="#3776AB"/>
<text x="709.7" y="355.6" font-size="10" fill="#8b949e" text-anchor="middle">5.3ms</text>
<text x="709.7" y="450.0" font-size="11" fill="#8b949e" text-anchor="middle">Python</text>
<rect x="766.2" y="408.3" width="37.7" height="25.7" fill="#A62B1F"/>
<text x="785.0" y="402.3" font-size="10" fill="#8b949e" text-anchor="middle">1.9ms</text>
<text x="785.0" y="450.0" font-size="11" fill="#8b949e" text-anchor="middle">Rust</text>
<rect x="841.5" y="418.8" width="37.7" height="15.2" fill="#FF9E0B"/>
<text x="860.3" y="412.8" font-size="10" fill="#8b949e" text-anchor="middle">1.1ms</text>
<text x="860.3" y="450.0" font-size="11" fill="#8b949e" text-anchor="middle">Mojo</text>
<line x1="672" y1="434" x2="898" y2="434" stroke="#8b949e" stroke-width="1.4"/>
</svg>